<svg xmlns="http://www.w3.org/2000/svg" viewBox="0 0 761.61 527.4"><defs><style>.cls-1{fill:#ffda00;}.cls-2{fill:#fff;}.cls-3{fill:#fc5c09;}.cls-4{fill:#161616;}</style></defs><g id="Capa_2" data-name="Capa 2"><g id="Capa_1-2" data-name="Capa 1"><path class="cls-1" d="M13.58,126.89c-4.86-1.56-8.31-8.25-8.31-13.8a9.9,9.9,0,0,1,1.13-4.8c.06-.06,5.72-10.52,29.13-25-4.21.75-7.88,1.51-9.82,2a42.59,42.59,0,0,1-9.81,1.46,12.79,12.79,0,0,1-6.75-1.62C5,82.72,1.6,74.58,1.6,69.13c0-20.27,38.08-57.54,53.66-65.19A33.48,33.48,0,0,1,70.15,0c4.63,0,8.25,1.35,10.62,3.4C84.87,7,90.91,15.26,90.91,21l-.06.86c-2,11.16-7.49,20.65-15.58,24.7a15.76,15.76,0,0,1-6.85,1.78c-5.72,0-8.25-4.48-8.25-6.36a.8.8,0,0,1,.27-.71c6.2-3,19.14-21.35,20-28.31a11.74,11.74,0,0,0-1.35,0c-15.86,0-53.93,38-65,57.65.1,1.4,1.51,1.83,3.23,1.83a33.19,33.19,0,0,0,7.07-1.19A64,64,0,0,1,40.7,69c5.5,0,11,.81,15.59,3,9.27-4.47,20.17-9.22,32.95-14a3.39,3.39,0,0,1,1-.22,3,3,0,0,1,1.08,5.82c-11.27,4.16-21,8.31-29.39,12.25a18.57,18.57,0,0,1,3.13,4.31c1.62,3.18,3,9.65,3,14.72a14.62,14.62,0,0,1-.65,5c-3.77,10.25-31.12,27.88-48.16,27.88A17.46,17.46,0,0,1,13.58,126.89ZM63,87.58c0-4.37-5.5-5.72-12.35-5.72H50c-17.64,9.39-35.86,22.81-35.86,27.34,0,1,.86,1.57,2.8,1.57h.16C33.58,110.55,63,94.37,63,87.58Z"/><path class="cls-1" d="M79,90.76c-2.85-2.91-4-6.85-4-11.11,0-12.08,9.49-26.91,16.18-29.39a12.87,12.87,0,0,1,4.47-.7,20.36,20.36,0,0,1,9.12,2.26l1.24-.1a8,8,0,0,1,2,.27,7.85,7.85,0,0,1,4.21,2.64c1.78,1.94,2.91,5,2.91,9.06a18.87,18.87,0,0,1-.11,2.43,35.71,35.71,0,0,1-1.34,6.79l-.22.59c3.24-3.34,8.41-8.46,11-15.74a2,2,0,0,1,1.94-1.35,1.54,1.54,0,0,1,.7.11,2,2,0,0,1,1.35,1.88,1.89,1.89,0,0,1-.16.76c-4.26,12.08-12.35,19-18,21.84a34.14,34.14,0,0,1-5.12,7.39c-4,4.31-9.49,7.12-15,7.12A15.45,15.45,0,0,1,79,90.76Zm23.14-5.12a28.13,28.13,0,0,0,2.43-3h-.49a12.59,12.59,0,0,1-3.23-.43,10,10,0,0,1-5.29-4.1,14.15,14.15,0,0,1-2.21-7.39c-2.91,6.15-4.1,11-4.1,14.51,0,3.88,1.56,5.93,4,5.93C95.65,91.14,98.78,89.36,102.18,85.64Zm6.52-13.38a39.91,39.91,0,0,0,1.51-5.55,21,21,0,0,0,.49-4.15A7.68,7.68,0,0,0,110,59a2.67,2.67,0,0,0-1.24-1.3,4,4,0,0,0-.76-.11,2.17,2.17,0,0,0-1,.22c-1.29.54-2.69,2.1-3.72,4.58-1.35,3.19-2.53,6.85-2.53,9.82,0,3.29,1.45,5.72,5.5,5.72h.16A55.76,55.76,0,0,0,108.7,72.26Z"/><path class="cls-1" d="M113,105.64a14.29,14.29,0,0,1-1-5.82c0-21.14,26.15-71.08,30.74-90.65,9.54,2.21,13,5.77,13,10.73,0,3-1.24,6.52-3.12,10.57C144.08,49,126.39,87.9,124.72,107c4.26-1.78,15.64-24.37,23.68-40.34,1.94-3.82,3.66-7.28,5.06-10a2.08,2.08,0,0,1,1.78-1.13,2.24,2.24,0,0,1,1,.26,2.08,2.08,0,0,1,1.13,1.78,2.26,2.26,0,0,1-.27,1l-5,10.08c-8.46,17.09-20.33,41.25-26.85,43.47a3.87,3.87,0,0,1-1.14.16C120.46,112.28,114.31,108.66,113,105.64Z"/><path class="cls-1" d="M148.56,90.76c-2.86-2.91-4.05-6.85-4.05-11.11,0-12.08,9.49-26.91,16.18-29.39a13.17,13.17,0,0,1,4.48-.7,20.36,20.36,0,0,1,9.11,2.26l1.24-.1a8.09,8.09,0,0,1,2,.27,7.83,7.83,0,0,1,4.2,2.64c1.78,1.94,2.91,5,2.91,9.06a20.75,20.75,0,0,1-.1,2.43,36.56,36.56,0,0,1-1.35,6.79l-.22.59c3.24-3.34,8.42-8.46,11-15.74a2,2,0,0,1,1.95-1.35,1.58,1.58,0,0,1,.7.11A2,2,0,0,1,198,58.4a1.89,1.89,0,0,1-.16.76c-4.26,12.08-12.35,19-17.95,21.84a34.18,34.18,0,0,1-5.13,7.39c-4,4.31-9.49,7.12-15,7.12A15.41,15.41,0,0,1,148.56,90.76Zm23.13-5.12a27,27,0,0,0,2.43-3h-.49a12.59,12.59,0,0,1-3.23-.43,10,10,0,0,1-5.29-4.1,14.15,14.15,0,0,1-2.21-7.39c-2.91,6.15-4.1,11-4.1,14.51,0,3.88,1.57,5.93,4,5.93C165.17,91.14,168.29,89.36,171.69,85.64Zm6.53-13.38a42.9,42.9,0,0,0,1.51-5.55,21.66,21.66,0,0,0,.48-4.15,7.68,7.68,0,0,0-.7-3.56,2.63,2.63,0,0,0-1.24-1.3,3.88,3.88,0,0,0-.75-.11,2.11,2.11,0,0,0-1,.22c-1.3.54-2.7,2.1-3.73,4.58-1.34,3.19-2.53,6.85-2.53,9.82,0,3.29,1.46,5.72,5.5,5.72H176A55.84,55.84,0,0,0,178.22,72.26Z"/><path class="cls-1" d="M222.28,105.64a14.29,14.29,0,0,1-1-5.82c0-21.14,26.15-71.08,30.73-90.65,9.55,2.21,13,5.77,13,10.73,0,3-1.24,6.52-3.13,10.57C253.34,49,235.65,87.9,234,107c4.26-1.78,15.64-24.37,23.67-40.34,1.94-3.82,3.67-7.28,5.07-10a2.08,2.08,0,0,1,1.78-1.13,2.2,2.2,0,0,1,1,.26,2.08,2.08,0,0,1,1.13,1.78,2.13,2.13,0,0,1-.27,1l-5,10.08c-8.47,17.09-20.33,41.25-26.86,43.47a3.8,3.8,0,0,1-1.13.16C229.72,112.28,223.57,108.66,222.28,105.64Z"/><path class="cls-1" d="M257.81,90.76c-2.85-2.91-4-6.85-4-11.11,0-12.08,9.49-26.91,16.18-29.39a13.11,13.11,0,0,1,4.47-.7,20.36,20.36,0,0,1,9.12,2.26l1.24-.1a8,8,0,0,1,2,.27A7.85,7.85,0,0,1,291,54.63c1.78,1.94,2.91,5,2.91,9.06a18.87,18.87,0,0,1-.11,2.43,35.71,35.71,0,0,1-1.34,6.79l-.22.59c3.24-3.34,8.41-8.46,11-15.74a2,2,0,0,1,1.94-1.35,1.54,1.54,0,0,1,.7.11,2,2,0,0,1,1.35,1.88,1.89,1.89,0,0,1-.16.76c-4.26,12.08-12.35,19-18,21.84A34.14,34.14,0,0,1,284,88.39c-4,4.31-9.49,7.12-15,7.12A15.45,15.45,0,0,1,257.81,90.76ZM281,85.64a28.13,28.13,0,0,0,2.43-3h-.49a12.73,12.73,0,0,1-3.24-.43,10,10,0,0,1-5.28-4.1,14.15,14.15,0,0,1-2.21-7.39c-2.91,6.15-4.1,11-4.1,14.51,0,3.88,1.56,5.93,4.05,5.93C274.42,91.14,277.55,89.36,281,85.64Zm6.52-13.38A39.91,39.91,0,0,0,289,66.71a21,21,0,0,0,.49-4.15,7.68,7.68,0,0,0-.7-3.56,2.67,2.67,0,0,0-1.24-1.3,4,4,0,0,0-.76-.11,2.17,2.17,0,0,0-1,.22c-1.29.54-2.69,2.1-3.72,4.58-1.35,3.19-2.53,6.85-2.53,9.82,0,3.29,1.45,5.72,5.5,5.72h.16A55.76,55.76,0,0,0,287.47,72.26Z"/><path class="cls-1" d="M388.53,100.36a11,11,0,0,1-1-5.12c0-9.5,6.31-25.67,9.22-36.57-11,13-19.09,35.22-19.09,35.27a1.79,1.79,0,0,1-1.83,1.19,5.63,5.63,0,0,1-1.24-.16c-2.86-.65-9.06-2.54-11.06-7a17.36,17.36,0,0,1-1-6.47,51.37,51.37,0,0,1,2.69-15.1c-8.57,12.4-13.69,27.39-13.69,27.45a2,2,0,0,1-1.89,1.35,1.44,1.44,0,0,1-.7-.11c-.11,0-.16,0-.16-.06-2.48-.48-9.55-2.26-11.65-7.06A16.15,16.15,0,0,1,336,81.54c0-10.09,5.23-25.13,11.22-30.36a5.9,5.9,0,0,1,3.93-1.57c4.26,0,8.36,4.75,8.36,8.9v.27c0,.27-2.1,4.58-4.47,9.82-2.65,6.68-4.7,13.1-5.45,18.71,3.67-9,12.29-27.29,24.16-36.19a5.7,5.7,0,0,1,3.88-1.51c4.26,0,8.36,4.75,8.36,9v.21c0,.27-2.1,4.58-4.53,9.82a90.87,90.87,0,0,0-5.29,18c3.89-9.16,12.08-26.42,22-35.21a5.84,5.84,0,0,1,2.91-.92,5.91,5.91,0,0,1,.92.11c7.71,2.21,10.4,5.45,10.4,9.92a23.85,23.85,0,0,1-1.88,8c-3.24,8.31-9.55,24.38-10.09,33.87,4.1-1.35,14.24-21.84,21.41-36.24,1.73-3.45,3.24-6.58,4.53-9A2,2,0,0,1,428.22,56a1.78,1.78,0,0,1,.92.21A2.06,2.06,0,0,1,430.22,58a1.92,1.92,0,0,1-.22.91c-1.24,2.43-2.8,5.5-4.47,9C419,81.11,410,99.17,403.58,104.73a6.5,6.5,0,0,1-4.15,1.29C395.17,106,390.15,103.27,388.53,100.36Z"/><path class="cls-1" d="M418.52,88.55a16.7,16.7,0,0,1-2.21-8.79,25.31,25.31,0,0,1,.21-3.4c2-16.61,18-26.15,18-26.15a6.65,6.65,0,0,1,3.13-.6c3.88,0,9.33,1.68,10.84,3.62a6.67,6.67,0,0,1,1.35,4.31,9.73,9.73,0,0,1-.17,1.73,19.89,19.89,0,0,1-2.53,7,37.08,37.08,0,0,1-16.23,15.1,22.94,22.94,0,0,0-1.14,6.25v.22c0,1.18.44,1.67,1.19,1.67A6.74,6.74,0,0,0,434.21,88c10.79-7.77,18.12-17.91,24.86-29.13a2.42,2.42,0,0,1,2.05-1.29,2,2,0,0,1,2.05,1.94,1.6,1.6,0,0,1-.22.86c-5.33,9.66-19.63,33-30.57,34.63l-.87,0C427.36,95,420.3,91.46,418.52,88.55Zm25-24.27a17.71,17.71,0,0,0,2.1-5.61l.11-1.18a2.37,2.37,0,0,0-.65-1.89,78.13,78.13,0,0,0-12.35,20.06A32.46,32.46,0,0,0,443.54,64.28Z"/><path class="cls-1" d="M419.81,127.48v0c0-10.52,12.35-23.84,25.56-33.7,3.46-8,13.38-36.84,18.34-42.5a4.65,4.65,0,0,1,3.61-1.56h.06c4.26,0,9.43,4.63,9.43,9.27v.22c0,.27-5.12,10.89-9,19.9,8.41-6.85,16.39-15.37,18.28-20.28A2.1,2.1,0,0,1,488,57.43l.65.11a2.17,2.17,0,0,1,1.35,2,2.86,2.86,0,0,1-.11.64c-2.59,7.34-14.29,18.55-26.1,28.15-7.07,16.34-15.26,37.91-25.83,46.49a8.33,8.33,0,0,1-5.29,1.56C426.93,136.38,419.81,132.72,419.81,127.48Zm21.2-23c-7.77,7.82-14.13,16.71-14.13,23.35V128C431.41,122.63,436.8,113.3,441,104.46Zm29.76-61.37a4,4,0,0,1,.17-1.13c1.18-4.21,3.88-7.93,4.47-12.35.11-.76.86-1.08,1.94-1.08,3.45,0,10.46,3.4,10.46,6.68a1.94,1.94,0,0,1-.05.54S483.61,42.44,481,46a5,5,0,0,1-4.21,2C473.85,48.05,470.77,45.89,470.77,43.09Z"/><path class="cls-1" d="M482.15,90.76c-2.86-2.91-4-6.85-4-11.11,0-12.08,9.49-26.91,16.18-29.39a13.07,13.07,0,0,1,4.47-.7,20.4,20.4,0,0,1,9.12,2.26l1.24-.1a8.07,8.07,0,0,1,2,.27,7.85,7.85,0,0,1,4.21,2.64c1.78,1.94,2.91,5,2.91,9.06a18.87,18.87,0,0,1-.11,2.43,35.76,35.76,0,0,1-1.35,6.79l-.21.59c3.23-3.34,8.41-8.46,11-15.74a2,2,0,0,1,1.94-1.35,1.54,1.54,0,0,1,.7.11,2,2,0,0,1,1.35,1.88,1.89,1.89,0,0,1-.16.76c-4.26,12.08-12.35,19-18,21.84a34.14,34.14,0,0,1-5.12,7.39c-4,4.31-9.49,7.12-15,7.12A15.45,15.45,0,0,1,482.15,90.76Zm23.14-5.12a26.89,26.89,0,0,0,2.42-3h-.48a12.73,12.73,0,0,1-3.24-.43,10,10,0,0,1-5.28-4.1,14,14,0,0,1-2.21-7.39c-2.92,6.15-4.1,11-4.1,14.51,0,3.88,1.56,5.93,4,5.93C498.76,91.14,501.89,89.36,505.29,85.64Zm6.52-13.38a39.91,39.91,0,0,0,1.51-5.55,21,21,0,0,0,.49-4.15,7.68,7.68,0,0,0-.7-3.56,2.71,2.71,0,0,0-1.24-1.3,4,4,0,0,0-.76-.11,2.14,2.14,0,0,0-1,.22c-1.29.54-2.7,2.1-3.72,4.58-1.35,3.19-2.54,6.85-2.54,9.82,0,3.29,1.46,5.72,5.51,5.72h.16A55.76,55.76,0,0,0,511.81,72.26Z"/><path class="cls-1" d="M520.39,110.17a12,12,0,0,1-1.08-5.39c0-10.08,7.87-25.18,11.05-30.63a8.81,8.81,0,0,0,1.35-4.48c0-4-3.34-6.84-5.28-11.21a3.58,3.58,0,0,1-.27-1.62c0-3.24,2.53-8.68,5.12-13.16,1.73-3,4.31-6.2,4.31-9.81v-.65c9.17,1.4,12.08,5.23,12.08,9.76,0,7.6-8.3,17.26-9.54,20.55a3.3,3.3,0,0,0-.22,1.18c0,3.35,5.13,5.34,5.13,12.14v.64c-.27,6.37-10,24-10,34.57a11.58,11.58,0,0,0,.37,3.13c5.45-3,28.75-53.66,30-56.41a2.07,2.07,0,0,1,2-1.46,2.1,2.1,0,0,1,.76.17,2.07,2.07,0,0,1,1.24,1.88,2.3,2.3,0,0,1-.16.76c-.06.16-21.36,51.34-30.15,58.46a5.21,5.21,0,0,1-3.34,1.13C528.42,119.72,521.9,113.25,520.39,110.17Z"/><path class="cls-2" d="M3.49,207.16A26.4,26.4,0,0,1,0,193.3a40.29,40.29,0,0,1,.34-5.36c3.15-26.2,28.32-41.25,28.32-41.25a10.43,10.43,0,0,1,4.93-.93c6.13,0,14.72,2.63,17.1,5.69a10.56,10.56,0,0,1,2.12,6.81,15.46,15.46,0,0,1-.25,2.72,31.47,31.47,0,0,1-4,11.06A58.46,58.46,0,0,1,23,195.85c-1,4.08-1.7,5.7-1.78,9.86v.34c0,1.88.68,2.64,1.87,2.64s3.06-.93,5.19-2.47C45.25,194,56.81,178,67.44,160.3a3.8,3.8,0,0,1,3.23-2,3.2,3.2,0,0,1,3.24,3.06,2.77,2.77,0,0,1-.34,1.36c-8.42,15.22-31,52-48.23,54.6l-1.36.09C17.43,217.37,6.29,211.75,3.49,207.16ZM43,168.89A28,28,0,0,0,46.27,160l.17-1.87a3.75,3.75,0,0,0-1-3c-5.19,6.2-14,17.94-19.48,31.63A51.33,51.33,0,0,0,43,168.89Z"/><path class="cls-2" d="M117.37,235.14c-3.49-.42-14.29-2.55-18-9.35-1.19-2-1.62-4.85-1.62-8.17,0-14.88,10-40.4,14.54-57.58-17.35,20.5-30.1,55.54-30.19,55.62a2.8,2.8,0,0,1-3,1.88,7.63,7.63,0,0,1-1.87-.26c-4.42-1-14.28-4-17.35-11a25.65,25.65,0,0,1-1.7-10.21c0-15.9,8.25-39.63,17.69-47.88a9.35,9.35,0,0,1,6.21-2.46c6.72,0,13.27,7.48,13.27,14.11v.34c-.09.43-3.32,7.23-7.15,15.48-4,10-7,19.73-8.33,28.32,6-14.11,18.54-40.56,33.68-54.68,2-1.7,3.4-2.38,5-2.38a13.52,13.52,0,0,1,3.65.76c10.89,3.4,14.8,8.42,14.8,15,0,3.66-1.19,7.91-3.06,12.68-5.1,13.09-15,38.44-15.9,53.41,6.55-2.13,22.53-34.45,33.85-57.16,2.63-5.44,5.1-10.37,7.14-14.2a3.11,3.11,0,0,1,2.81-1.7,3.4,3.4,0,0,1,1.53.34,3.24,3.24,0,0,1,1.7,2.89,3.08,3.08,0,0,1-.34,1.45c-2,3.83-4.42,8.67-7.15,14.12-12.33,24.92-29.17,60.55-39.12,60.72A4.66,4.66,0,0,1,117.37,235.14Z"/><path class="cls-2" d="M218,244.24c-4.51-1-12.5-3.66-15.31-10.12a22.52,22.52,0,0,1-1.53-9.19c0-20.49,15.65-58.25,29.34-91.42-6.72.42-13.52.93-19.56,1-4.93,0-11.14-3.57-11.82-13.52,0,0,16.58-2.56,38.52-4.77,5.53-13.77,10-25.77,12.08-34.27,15.05,3.49,20.41,9.1,20.41,17,0,4.25-1.61,9.18-4.08,14.88,9.61-.59,19.48-1,28.75-1,7.31,0,14.28.26,20.58.85,8.67.85,10.88,12.67,11.48,21.6-11.65-3.57-25.77-4.76-40.65-4.76-9.36,0-19,.51-28.41,1.11C243.15,163.7,222.57,211.16,221.13,236c6.63-2.38,24.57-37.08,37.42-63,3-6.12,5.69-11.65,8-16.07a3.09,3.09,0,0,1,2.81-1.7,3.23,3.23,0,0,1,3.23,3.23,3.3,3.3,0,0,1-.34,1.44c-2.3,4.34-4.93,9.87-8,15.91-5.27,10.88-30.53,68.63-45.07,68.63Z"/><path class="cls-2" d="M304.13,214.64c-4.42-4.84-6.21-12.07-6.21-20.07l.17-4.25c-7.23,12.93-15.31,24.75-21.68,28a8.18,8.18,0,0,1-3.75.77c-4,0-9.18-1.62-11.73-4.43-4.42-4.84-6.21-12.07-6.21-20.07,0-17.43,8.59-38.52,17.43-46.35a9.6,9.6,0,0,1,6.38-2.46c7,0,14.12,7.39,14.12,14v.42c0,1.11-18.11,36.66-18.11,45.67,0,1.28.42,2.05,1.27,2.05l.68-.17c4.59-1.54,19.73-27.73,28.83-44.74,3-6.29,6.47-11.65,10-14.8a9.58,9.58,0,0,1,6.38-2.46c7,0,14.11,7.48,14.11,14.11v.34c-.08,1.11-18.2,36.74-18.2,45.67,0,1.28.43,2.05,1.28,2.05l.68-.17c4.85-1.62,20.75-29.52,29.77-46.44,1.19-2.21,2.55-3,3.74-3a2.71,2.71,0,0,1,2.64,2.64,2.27,2.27,0,0,1-.26,1c-8.08,17.86-24.58,50.52-36,56.3a8,8,0,0,1-3.75.77C311.79,219.07,306.6,217.45,304.13,214.64Z"/><path class="cls-2" d="M484.86,225.79a17.27,17.27,0,0,1-1.62-8.08c0-15,9.95-40.49,14.55-57.67-17.35,20.5-30.11,55.54-30.11,55.62a2.83,2.83,0,0,1-2.89,1.88,8.26,8.26,0,0,1-2-.26c-4.51-1-14.29-4-17.43-11a27.26,27.26,0,0,1-1.62-10.21c0-7.06,1.62-15.73,4.25-23.81-13.52,19.56-21.6,43.2-21.6,43.29a3.08,3.08,0,0,1-3,2.13,2.32,2.32,0,0,1-1.1-.17c-.17,0-.26,0-.26-.09-3.91-.76-15-3.57-18.37-11.14A25.65,25.65,0,0,1,402,196.1c0-15.9,8.25-39.63,17.69-47.88a9.34,9.34,0,0,1,6.21-2.46c6.72,0,13.18,7.48,13.18,14v.42c0,.43-3.31,7.23-7.06,15.48-4.16,10.55-7.4,20.67-8.59,29.51,5.79-14.11,19.4-43,38.11-57.06a9,9,0,0,1,6.12-2.38c6.72,0,13.18,7.48,13.18,14.11v.34c0,.43-3.32,7.23-7.14,15.48-3.91,10-7,19.73-8.34,28.32,6.13-14.46,19.05-41.67,34.7-55.53a9.22,9.22,0,0,1,4.6-1.45,8.84,8.84,0,0,1,1.44.17c12.16,3.49,16.42,8.59,16.42,15.65,0,3.66-1.2,7.82-3,12.59-5.1,13.09-15,38.44-15.91,53.41,6.47-2.13,22.46-34.45,33.77-57.16,2.72-5.44,5.1-10.37,7.14-14.2a3.24,3.24,0,0,1,2.89-1.7,2.87,2.87,0,0,1,1.45.34,3.22,3.22,0,0,1,1.7,2.89,3.18,3.18,0,0,1-.34,1.45c-2,3.83-4.42,8.67-7.06,14.12-10.37,20.83-24.49,49.32-34.61,58.08a10.19,10.19,0,0,1-6.55,2.05C495.32,234.72,487.41,230.38,484.86,225.79Z"/><path class="cls-2" d="M532.15,207.16a26.3,26.3,0,0,1-3.49-13.86,38.68,38.68,0,0,1,.34-5.36c3.15-26.2,28.32-41.25,28.32-41.25a10.43,10.43,0,0,1,4.93-.93c6.13,0,14.72,2.63,17.1,5.69a10.56,10.56,0,0,1,2.12,6.81,15.46,15.46,0,0,1-.25,2.72,31.47,31.47,0,0,1-4,11.06,58.41,58.41,0,0,1-25.6,23.81c-1,4.08-1.7,5.7-1.78,9.86v.34c0,1.88.68,2.64,1.87,2.64s3.06-.93,5.18-2.47C573.9,194,585.47,178,596.1,160.3a3.8,3.8,0,0,1,3.23-2,3.21,3.21,0,0,1,3.24,3.06,2.77,2.77,0,0,1-.34,1.36c-8.42,15.22-31,52-48.23,54.6l-1.36.09C546.09,217.37,535,211.75,532.15,207.16Zm39.46-38.27a28,28,0,0,0,3.31-8.85l.17-1.87a3.72,3.72,0,0,0-1-3c-5.18,6.2-14,17.94-19.47,31.63A51.33,51.33,0,0,0,571.61,168.89Z"/><path class="cls-2" d="M564.12,248.92a2.72,2.72,0,0,1,1.45-2.55,350.83,350.83,0,0,0,41-26.71c-8.67-2.29-23.9-8-26.7-19.73a20.58,20.58,0,0,1-.68-5.7c0-18.45,20-43.63,31.81-47.54a24.16,24.16,0,0,1,7.14-1c5.78,0,12.08,1.79,16.16,4.68,2-4.76,3.57-9.1,3.57-12.42v-.85h.77c6.29,0,17.35,2.64,17.35,11.31A14.11,14.11,0,0,1,655,153c-2.64,7.15-11.57,15.82-11.57,25.69a14.43,14.43,0,0,0,.43,3.74s-11.91,0-14.63-10.29a13.73,13.73,0,0,1-.34-3.23c0-4.08,1.53-8.85,3.32-13.52a3.27,3.27,0,0,0-1.53-.34c-8.34,0-25.09,24.91-29.52,39.8a15.51,15.51,0,0,0-.76,4.42c0,4.42,3.4,6.12,10.8,7a30.28,30.28,0,0,1,9.36,2.39c17-14.21,34.1-31.56,45.07-50.69a3.28,3.28,0,0,1,2.81-1.79,3.41,3.41,0,0,1,1.53.43,3.23,3.23,0,0,1,1.7,2.89,3.4,3.4,0,0,1-.34,1.53c-10,19.3-28.83,36.74-45.67,50.94a23.51,23.51,0,0,1,5,7h.08a18.91,18.91,0,0,1,2.13,8.42c0,18.79-31.39,32.06-46.44,37.08a9.73,9.73,0,0,1-2.72.42C575.35,264.82,564.12,254.36,564.12,248.92Zm47.12-25.18c-11.06,8.59-21.35,15.48-29.09,20.42C594,239.73,607.24,232.59,611.24,223.74Z"/><path class="cls-2" d="M702.67,214.64c-4.6-5.1-6.13-11.65-6.13-18.37a65,65,0,0,1,1.79-14.2c-4.68,6.46-20.41,35.47-30.87,35.47a4.79,4.79,0,0,1-2.81-.85c-8.08-5.19-11.23-13.44-11.23-22.54,0-19.73,14.8-43.29,25.6-47.29a19.25,19.25,0,0,1,6.64-1.19h.08c8,0,16.5,4.34,20.92,10.63a63.71,63.71,0,0,1,6.55-6.8,9.61,9.61,0,0,1,6.38-2.47c7,0,14.12,7.4,14.12,14v.43c0,1.1-17.52,35.55-17.52,44.39,0,1.28.34,2.05,1.28,2.05l.68-.17c4.84-1.62,20.75-29.52,29.85-46.44,1.19-2.21,2.55-3,3.65-3a2.71,2.71,0,0,1,2.64,2.64,2.26,2.26,0,0,1-.25,1c-8,17.86-24.58,50.52-36,56.3a7.91,7.91,0,0,1-3.74.77C710.41,219.07,705.22,217.45,702.67,214.64Zm.25-54.34c-1.78-3.23-3.4-4.68-5.19-4.68h-.17c-1.7,0-3.57,1.45-5.86,4-5.79,6.46-15.48,20.66-19.82,46.26C671.88,205.88,688.55,178.24,702.92,160.3Z"/><path class="cls-2" d="M739.15,210.39v-.25c0-2.89,4-8.08,5.36-10.55a6.7,6.7,0,0,1,6.21-3.4c5.1,0,10.89,3.83,10.89,8.67v.68c-.52,6-2.39,9.36-4.77,11.06a8.67,8.67,0,0,1-5.19,1.36C746.3,218,739.66,215.15,739.15,210.39Z"/><rect class="cls-3" x="6.37" y="277.3" width="251" height="59.84" rx="29.92"/><circle class="cls-2" cx="36.03" cy="307.48" r="16.95"/><path class="cls-2" d="M83.11,300.1a2.89,2.89,0,0,1,1,2.21,3,3,0,0,1-1,2.25,3.4,3.4,0,0,1-2.44.91,3.45,3.45,0,0,1-2.48-.91,3,3,0,0,1-1-2.25,2.9,2.9,0,0,1,1-2.21,3.52,3.52,0,0,1,2.48-.89A3.47,3.47,0,0,1,83.11,300.1Zm-5,7.72H83l.67,16.12H77.47Z"/><path class="cls-2" d="M106.38,306.19a7,7,0,0,1-2.9,2.75,10.22,10.22,0,0,1-4.84,1H95.07v8.48H89.31V294.84h9.33a10.59,10.59,0,0,1,4.77,1,6.68,6.68,0,0,1,2.93,2.69,7.86,7.86,0,0,1,1,3.94A7.67,7.67,0,0,1,106.38,306.19Zm-5.72-1.56a3.4,3.4,0,0,0,0-4.38,3.47,3.47,0,0,0-2.46-.77H95.07v5.92H98.2A3.47,3.47,0,0,0,100.66,304.63Z"/><path class="cls-2" d="M110.73,296.84a3,3,0,0,1,0-4.44,3.49,3.49,0,0,1,2.48-.9,3.44,3.44,0,0,1,2.44.9,3,3,0,0,1,0,4.44,3.47,3.47,0,0,1-2.44.89A3.52,3.52,0,0,1,110.73,296.84Zm5.34,2.84v18.78h-5.76V299.68Z"/><path class="cls-2" d="M120.19,304a8.21,8.21,0,0,1,3-3.36,7.73,7.73,0,0,1,4.21-1.18,7.34,7.34,0,0,1,3.38.78,6.1,6.1,0,0,1,2.4,2.08v-8.71h5.76v24.9h-5.76v-2.69a5.9,5.9,0,0,1-2.3,2.15,7.21,7.21,0,0,1-3.48.81,7.66,7.66,0,0,1-4.21-1.2,8.2,8.2,0,0,1-3-3.4,12.43,12.43,0,0,1,0-10.18ZM132,305.67a4.06,4.06,0,0,0-5.82,0A4.65,4.65,0,0,0,125,309a4.75,4.75,0,0,0,1.2,3.41,3.84,3.84,0,0,0,2.91,1.26,3.89,3.89,0,0,0,2.91-1.24,5.45,5.45,0,0,0,0-6.8Z"/><path class="cls-2" d="M160.69,310.45h-13a3.93,3.93,0,0,0,1.12,2.68,3.49,3.49,0,0,0,2.44.92,3,3,0,0,0,3-1.82h6.12a8.25,8.25,0,0,1-1.7,3.33,8.41,8.41,0,0,1-3.07,2.33,10,10,0,0,1-4.14.84,10.06,10.06,0,0,1-4.92-1.18,8.42,8.42,0,0,1-3.36-3.36,11.52,11.52,0,0,1,0-10.24,8.34,8.34,0,0,1,3.35-3.36,10.07,10.07,0,0,1,4.95-1.18,10,10,0,0,1,4.84,1.15,8.2,8.2,0,0,1,3.32,3.26,10,10,0,0,1,1.19,4.95A14,14,0,0,1,160.69,310.45Zm-5.79-3.2a2.93,2.93,0,0,0-1-2.35,4,4,0,0,0-5,0,3.77,3.77,0,0,0-1.23,2.39Z"/><path class="cls-2" d="M190.14,299.68l-11.78,27.7h-6.19l4.3-9.56-7.64-18.14h6.43l4.34,11.75,4.31-11.75Z"/><path class="cls-2" d="M192.17,304a8.21,8.21,0,0,1,3-3.36,7.75,7.75,0,0,1,4.21-1.18,7.21,7.21,0,0,1,3.48.81,5.84,5.84,0,0,1,2.3,2.12v-2.66h5.76v18.78h-5.76V315.8a6.21,6.21,0,0,1-2.33,2.12,7.22,7.22,0,0,1-3.49.81,7.62,7.62,0,0,1-4.17-1.2,8.2,8.2,0,0,1-3-3.4,12.43,12.43,0,0,1,0-10.18ZM204,305.67a4.06,4.06,0,0,0-5.82,0,4.65,4.65,0,0,0-1.2,3.39,4.75,4.75,0,0,0,1.2,3.41,3.84,3.84,0,0,0,2.91,1.26,3.89,3.89,0,0,0,2.91-1.24,5.45,5.45,0,0,0,0-6.8Z"/><path class="cls-2" d="M217.14,317.84a2.9,2.9,0,0,1-1-2.21,3,3,0,0,1,1-2.25,3.42,3.42,0,0,1,2.47-.91,3.38,3.38,0,0,1,2.44.91,3,3,0,0,1,1,2.25,2.9,2.9,0,0,1-1,2.21,3.46,3.46,0,0,1-2.44.89A3.5,3.5,0,0,1,217.14,317.84Zm5.5-23.85L222,310.11h-4.88L216.42,294Z"/><rect class="cls-1" x="65.77" y="458.6" width="402.77" height="68.8" rx="34.4"/><circle class="cls-4" cx="104.24" cy="493.42" r="21.81"/><path class="cls-2" d="M116.25,492.72v.46h-1.61v-.69l-.23-1.92v-.66a4.16,4.16,0,0,0-.42-1.11h0l-.66-1.19-.46-.69v-.15a10.55,10.55,0,0,0-2.72-2.65,4,4,0,0,0-.66-.39,6.53,6.53,0,0,0-1.19-.65h0a12.45,12.45,0,0,0-1.84-.65,10,10,0,0,0-2.42-.31h0v-1.34c0-.23,0-.23.23-.23h.88a.18.18,0,0,1,.27,0h0a12.47,12.47,0,0,1,8.37,4.91h0l.23.35a7.3,7.3,0,0,1,.66,1,12,12,0,0,1,1.11,2.65.47.47,0,0,1,0,.46,17,17,0,0,1,.31,1.85v1Z"/><path class="cls-2" d="M90.41,485.88v-.19s0-.11,0-.15v-.27a10.16,10.16,0,0,1,1.84-2.15l.58-.46a3.25,3.25,0,0,1,.84-.35h2a3.42,3.42,0,0,1,2,1.84,3.84,3.84,0,0,1,.31,1c.23.77.46,1.65.65,2.46a3.39,3.39,0,0,1-.31,2.3,4.55,4.55,0,0,0-.46.66l-.88.76a.39.39,0,0,0,0,.5l.34,1a12.84,12.84,0,0,0,1.92,3.38,3.67,3.67,0,0,0,.43.46,12.49,12.49,0,0,0,3.37,2.58l1.23.53c.31.16.73.23,1,.39a.32.32,0,0,0,.35,0l.88-.89a3.14,3.14,0,0,1,2.38-1,5.6,5.6,0,0,1,1.11.23l2,.62h.23a3.13,3.13,0,0,1,2.07,2.3.9.9,0,0,1,0,.46v1.27a3.36,3.36,0,0,1-.88,1.46l-1.08,1.27a1,1,0,0,1-.53.42,1.84,1.84,0,0,1-.89.23h-1.49a5.23,5.23,0,0,1-1.58,0,3.16,3.16,0,0,1-1.69-.35,15.34,15.34,0,0,1-3-1h-.31l-.58-.23-1.42-.69a11.56,11.56,0,0,1-1.84-1.19l-1.54-1.23L96,500.51l-1.19-1.42-.31-.42-.15-.23c-.16-.23-.81-1.19-1.23-1.84l-.73-1.35-.23-.46c-.19-.46-.39-1-.54-1.46a19.3,19.3,0,0,1-.58-1.88V491a1.4,1.4,0,0,0,0-.81L91,490a8.21,8.21,0,0,1-.5-1.69C90.29,487.53,90.56,486.69,90.41,485.88Z"/><path class="cls-2" d="M103.31,486.92v-1.54h1.23a.53.53,0,0,1,.46,0,11.89,11.89,0,0,1,1.58.58,8.06,8.06,0,0,1,4.45,5.49h0a.28.28,0,0,1,0,.35h0v1.07c0,.42,0,.35-.23.23h-1.23v-1.19a1.27,1.27,0,0,0,0-.77,5.76,5.76,0,0,0-1.69-2.65,6.52,6.52,0,0,0-2.53-1.53,2,2,0,0,0-.69,0h-1.08Z"/><path class="cls-2" d="M103.58,491.76s-.23,0-.23-.31v-1.34a3.59,3.59,0,0,1,1.27.23h.57a3.94,3.94,0,0,1,.73.69l.42.65a2.33,2.33,0,0,1,.24,1V493h-1.31c-.23,0-.23,0-.23-.23a1.66,1.66,0,0,0-1.23-1.35h0Z"/><path class="cls-4" d="M149,473.13a7.4,7.4,0,0,1,5.06-1.64,8.25,8.25,0,0,1,3.63.74,5.2,5.2,0,0,1,3.06,4.86,4.72,4.72,0,0,1-.93,3,4.65,4.65,0,0,1-2.18,1.6v.11a5.13,5.13,0,0,1,2.55,1.78,5.21,5.21,0,0,1,.93,3.2,5.86,5.86,0,0,1-.81,3.09A5.45,5.45,0,0,1,158,492a8.16,8.16,0,0,1-3.66.77,8.25,8.25,0,0,1-5.41-1.67,6.41,6.41,0,0,1-2.13-5h4.69a2.8,2.8,0,0,0,.7,2,2.55,2.55,0,0,0,2,.73,2.29,2.29,0,0,0,1.71-.64,2.34,2.34,0,0,0,.61-1.68,2.22,2.22,0,0,0-.86-2,4.86,4.86,0,0,0-2.76-.61h-.9v-3.93h.9a4.77,4.77,0,0,0,2.33-.49,1.85,1.85,0,0,0,.89-1.77,2.16,2.16,0,0,0-.56-1.58,2.11,2.11,0,0,0-1.56-.57,1.92,1.92,0,0,0-1.59.65,3,3,0,0,0-.61,1.61H147A6.24,6.24,0,0,1,149,473.13Z"/><path class="cls-4" d="M163.43,476.47V472h7.83V492.6h-5V476.47Z"/><path class="cls-4" d="M174.68,488.92V485l8.93-12.77H189v12.48h2.32v4.18H189v3.68h-4.83v-3.68Zm9.83-11.35-4.75,7.17h4.75Z"/><path class="cls-4" d="M199.79,488.92V485l8.93-12.77h5.4v12.48h2.31v4.18h-2.31v3.68h-4.83v-3.68Zm9.84-11.35-4.75,7.17h4.75Z"/><path class="cls-4" d="M218.92,488.92V485l8.93-12.77h5.39v12.48h2.32v4.18h-2.32v3.68h-4.83v-3.68Zm9.83-11.35L224,484.74h4.74Z"/><path class="cls-4" d="M251.1,475.59l-7.09,17h-4.95l7.18-16.47h-8.79V472H251.1Z"/><path class="cls-4" d="M259.15,488.92V485l8.93-12.77h5.39v12.48h2.32v4.18h-2.32v3.68h-4.83v-3.68ZM269,477.57l-4.74,7.17H269Z"/><path class="cls-4" d="M278.87,488c1.85-1.52,3.3-2.78,4.36-3.76a17.44,17.44,0,0,0,2.7-3.08,5.51,5.51,0,0,0,1.1-3.13,2.81,2.81,0,0,0-.53-1.81,2.24,2.24,0,0,0-3.29.15,3.7,3.7,0,0,0-.61,2.28h-4.66a7.91,7.91,0,0,1,1-4,5.94,5.94,0,0,1,2.57-2.38,8.23,8.23,0,0,1,3.54-.76,6.89,6.89,0,0,1,5.08,1.72,6.12,6.12,0,0,1,1.71,4.5,8.77,8.77,0,0,1-2.07,5.6,29.93,29.93,0,0,1-5.25,5.05h7.63v3.92H278v-3.58Z"/><path class="cls-4" d="M307.46,475.59l-7.09,17h-4.94l7.17-16.47h-8.79V472h13.65Z"/><path class="cls-4" d="M311.29,474.35q1.88-2.81,6.06-2.8t6.06,2.8a13.57,13.57,0,0,1,1.88,7.65,13.75,13.75,0,0,1-1.88,7.72q-1.87,2.79-6.06,2.79t-6.06-2.79a13.75,13.75,0,0,1-1.88-7.72A13.57,13.57,0,0,1,311.29,474.35Zm8.63,3.26a2.91,2.91,0,0,0-5.14,0,12.07,12.07,0,0,0-.62,4.39,18.66,18.66,0,0,0,.22,3.18,4.1,4.1,0,0,0,.92,2,2.62,2.62,0,0,0,2.05.77,2.65,2.65,0,0,0,2-.77,4.09,4.09,0,0,0,.91-2,17.57,17.57,0,0,0,.23-3.18A12.29,12.29,0,0,0,319.92,477.61Z"/><path class="cls-4" d="M153.55,500.3a3.43,3.43,0,0,0-3.08,1.58c-.68,1.06-1,2.81-1,5.23a4,4,0,0,1,1.78-1.89,5.68,5.68,0,0,1,2.77-.68,5,5,0,0,1,3.81,1.48,5.68,5.68,0,0,1,1.42,4.1,6.32,6.32,0,0,1-.61,2.83,4.63,4.63,0,0,1-1.86,2,5.66,5.66,0,0,1-3,.75,5.87,5.87,0,0,1-3.73-1.07,5.56,5.56,0,0,1-1.87-2.94,17.08,17.08,0,0,1-.54-4.64q0-8.51,5.93-8.5a5,5,0,0,1,3.57,1.22,5,5,0,0,1,1.53,3.11h-1.94A2.9,2.9,0,0,0,153.55,500.3Zm-1.85,6.43a3.4,3.4,0,0,0-1.43,1.23,3.56,3.56,0,0,0-.54,2,4,4,0,0,0,1,2.86,3.76,3.76,0,0,0,2.92,1.1,3.4,3.4,0,0,0,2.58-1,3.8,3.8,0,0,0,1-2.73,4.15,4.15,0,0,0-.92-2.84,3.51,3.51,0,0,0-2.72-1A4.4,4.4,0,0,0,151.7,506.73Z"/><path class="cls-4" d="M163.7,499.76a5.93,5.93,0,0,1,3.85-1.2,6,6,0,0,1,2.72.57,4,4,0,0,1,1.74,1.54,4.19,4.19,0,0,1,.59,2.2,3.88,3.88,0,0,1-.82,2.48,3.71,3.71,0,0,1-2.14,1.34v.12a4.28,4.28,0,0,1,2.38,1.46,4.39,4.39,0,0,1,.88,2.85,4.75,4.75,0,0,1-.6,2.38,4.11,4.11,0,0,1-1.81,1.65,6.42,6.42,0,0,1-2.89.61,6.17,6.17,0,0,1-4-1.29,5,5,0,0,1-1.76-3.65h2a3.5,3.5,0,0,0,1.14,2.27,3.7,3.7,0,0,0,2.59.88,3.32,3.32,0,0,0,2.47-.85,3,3,0,0,0,.85-2.19,2.79,2.79,0,0,0-1.16-2.5,6.45,6.45,0,0,0-3.5-.76h-.53v-1.76h.55a6.35,6.35,0,0,0,3.22-.71,2.32,2.32,0,0,0,1.09-2.12,2.53,2.53,0,0,0-.8-2,3.19,3.19,0,0,0-2.28-.74,3.46,3.46,0,0,0-2.32.74,3,3,0,0,0-1,2h-2.06A4.52,4.52,0,0,1,163.7,499.76Z"/><path class="cls-4" d="M175.2,500.81v-1.93h4.35v16.76h-2.13V500.81Z"/><path class="cls-4" d="M182.66,511.91v-1.6l8.13-11.26h2.53v11h2.32v1.83h-2.32v3.73h-2.09v-3.73Zm8.67-10.66-6.24,8.83h6.24Z"/><path class="cls-4" d="M199,500.87c.87-1.5,2.38-2.24,4.55-2.24s3.65.74,4.51,2.24a12.39,12.39,0,0,1,1.3,6.22,12.64,12.64,0,0,1-1.3,6.3,4.76,4.76,0,0,1-4.51,2.25c-2.17,0-3.68-.75-4.55-2.25a12.76,12.76,0,0,1-1.29-6.3A12.5,12.5,0,0,1,199,500.87Zm8,2.8a4.33,4.33,0,0,0-1.09-2.26,3.74,3.74,0,0,0-4.77,0,4.33,4.33,0,0,0-1.09,2.26,18.36,18.36,0,0,0-.27,3.42,19.14,19.14,0,0,0,.27,3.5,4.36,4.36,0,0,0,1.09,2.27,3.74,3.74,0,0,0,4.77,0,4.36,4.36,0,0,0,1.09-2.27,19.14,19.14,0,0,0,.27-3.5A18.36,18.36,0,0,0,207.05,503.67Z"/><path class="cls-4" d="M216.09,513.18a3.39,3.39,0,0,0,2.28.72,3.08,3.08,0,0,0,2.84-1.51q.91-1.5.87-5.07a3.55,3.55,0,0,1-1.62,1.63,5.33,5.33,0,0,1-2.53.59,6,6,0,0,1-2.77-.63,4.65,4.65,0,0,1-1.91-1.87,6,6,0,0,1-.7-3,5.55,5.55,0,0,1,1.44-4,5.36,5.36,0,0,1,4.08-1.52q3.24,0,4.55,2.11a12,12,0,0,1,1.31,6.28,18.51,18.51,0,0,1-.52,4.82,5.43,5.43,0,0,1-1.76,2.9,5.3,5.3,0,0,1-3.39,1,5.09,5.09,0,0,1-3.69-1.27,5,5,0,0,1-1.51-3.25H215A3.28,3.28,0,0,0,216.09,513.18Zm4.74-6.38a3.47,3.47,0,0,0,1-2.61,4,4,0,0,0-1-2.8,3.52,3.52,0,0,0-2.73-1.07,3.38,3.38,0,0,0-2.59,1,3.77,3.77,0,0,0-1,2.69,3.83,3.83,0,0,0,1,2.71,4.05,4.05,0,0,0,5.31.06Z"/><path class="cls-4" d="M231.26,510.07a18.69,18.69,0,0,0,2.81-3.18,5.68,5.68,0,0,0,1.15-3.26,3.55,3.55,0,0,0-.73-2.37,2.91,2.91,0,0,0-2.35-.87,3.09,3.09,0,0,0-2.45,1,4.1,4.1,0,0,0-.94,2.63h-2a5.6,5.6,0,0,1,1.58-4,6,6,0,0,1,7.61-.1,4.75,4.75,0,0,1,1.4,3.64,7,7,0,0,1-1.14,3.74,16.55,16.55,0,0,1-2.61,3.2c-1,.92-2.22,2-3.73,3.21h8v1.76H226.64V514C228.61,512.37,230.14,511.08,231.26,510.07Z"/><rect class="cls-4" x="364.01" y="458.5" width="334.76" height="68.8" rx="34.4"/><circle class="cls-3" cx="402.48" cy="493.32" r="21.81"/><path class="cls-2" d="M409.11,483.3a8.19,8.19,0,0,0-4.34-2.07,8.07,8.07,0,0,1-1.39,0h-2.27a7.79,7.79,0,0,0-2.07.3,10.16,10.16,0,0,0-6.71,9.5,12.08,12.08,0,0,0,1.35,5.74,29.77,29.77,0,0,0,6.87,9.2,2.43,2.43,0,0,0,1.47.79h.79a2.32,2.32,0,0,0,1.13-.53c.87-.75,1.62-1.54,2.41-2.26a28.24,28.24,0,0,0,4.08-5.58,15,15,0,0,0,2.19-6.87,10.09,10.09,0,0,0-3.63-8.26Zm-6.6,12.79a5,5,0,1,1,5.05-4.94,4.87,4.87,0,0,1-4.86,4.94h-.19Z"/><path class="cls-2" d="M443.16,478a8.56,8.56,0,0,1,3.29-3.33,9.55,9.55,0,0,1,4.8-1.2,9.12,9.12,0,0,1,5.61,1.74,8.33,8.33,0,0,1,3.13,4.72h-4.94a4.06,4.06,0,0,0-1.56-1.76,4.41,4.41,0,0,0-2.3-.6,4.3,4.3,0,0,0-3.36,1.44,6.46,6.46,0,0,0,0,7.72,4.31,4.31,0,0,0,3.36,1.45,4.41,4.41,0,0,0,2.3-.61,4,4,0,0,0,1.56-1.76H460a8.24,8.24,0,0,1-3.13,4.71,9.17,9.17,0,0,1-5.61,1.72,9.55,9.55,0,0,1-4.8-1.19,8.54,8.54,0,0,1-3.29-3.32,10.62,10.62,0,0,1,0-9.73Z"/><path class="cls-2" d="M469.2,478a5.11,5.11,0,0,1,2.63-.69V482h-1.24a3.79,3.79,0,0,0-2.52.72,3.21,3.21,0,0,0-.84,2.53v6.8h-4.49V477.42h4.49v2.45A6,6,0,0,1,469.2,478Z"/><path class="cls-2" d="M473.94,480.76a6.41,6.41,0,0,1,2.32-2.63,6.1,6.1,0,0,1,3.28-.92,5.63,5.63,0,0,1,2.72.63,4.67,4.67,0,0,1,1.8,1.66v-2.08h4.49v14.65h-4.49V490a4.93,4.93,0,0,1-1.82,1.65,5.66,5.66,0,0,1-2.72.63,6,6,0,0,1-3.26-.93,6.41,6.41,0,0,1-2.32-2.65,9.7,9.7,0,0,1,0-7.94Zm9.19,1.34a3,3,0,0,0-2.27-1,3.06,3.06,0,0,0-2.27.95,3.64,3.64,0,0,0-.94,2.64,3.75,3.75,0,0,0,.94,2.67,3.13,3.13,0,0,0,4.54,0,4.24,4.24,0,0,0,0-5.3Z"/><path class="cls-2" d="M492,491.59a2.29,2.29,0,0,1-.74-1.72,2.35,2.35,0,0,1,.74-1.76,2.72,2.72,0,0,1,1.93-.71,2.69,2.69,0,0,1,1.91.71,2.32,2.32,0,0,1,.75,1.76,2.27,2.27,0,0,1-.75,1.72,2.72,2.72,0,0,1-1.91.69A2.75,2.75,0,0,1,492,491.59Z"/><path class="cls-2" d="M503.85,477.08v-4.17h7.27v19.16h-4.67v-15Z"/><path class="cls-2" d="M522.94,476.62a2.15,2.15,0,0,0-1.5-.48,2.23,2.23,0,0,0-2.15,1.3,9.63,9.63,0,0,0-.68,4.11,3.87,3.87,0,0,1,1.66-1.45,6,6,0,0,1,6.54,1.1,6.31,6.31,0,0,1,1.56,4.55,7.12,7.12,0,0,1-.77,3.36,5.51,5.51,0,0,1-2.26,2.25,7.1,7.1,0,0,1-3.5.82q-4.05,0-5.62-2.54t-1.58-7.28q0-5,1.67-7.42t5.34-2.42a6.55,6.55,0,0,1,3.32.77,5.26,5.26,0,0,1,2,2,7,7,0,0,1,.83,2.76h-4.18A2.73,2.73,0,0,0,522.94,476.62Zm-3.22,7.17a2.42,2.42,0,0,0-.75,1.9,2.71,2.71,0,0,0,.7,2,2.61,2.61,0,0,0,2,.71,2.44,2.44,0,0,0,1.83-.69,2.68,2.68,0,0,0,.67-1.91,2.73,2.73,0,0,0-.66-1.94,2.47,2.47,0,0,0-1.89-.71A2.71,2.71,0,0,0,519.72,483.79Z"/><path class="cls-2" d="M554.07,480.57l-.73,3.44h3.15v4.05h-4l-.87,4h-4.2l.87-4h-4.36l-.86,4h-4.2l.86-4h-3.88V484h4.75l.73-3.44h-3.8v-4h4.64l.84-3.88h4.2l-.84,3.88h4.36l.84-3.88h4.2l-.84,3.88h3.26v4Zm-4.2,0h-4.36l-.73,3.44h4.36Z"/><path class="cls-2" d="M559.74,477.08v-4.17H567v19.16h-4.67v-15Z"/><path class="cls-2" d="M570.77,477.66a4.78,4.78,0,0,1,.73-2.59,5.13,5.13,0,0,1,2.23-1.86,8.79,8.79,0,0,1,3.68-.69,8.66,8.66,0,0,1,3.66.69,5.1,5.1,0,0,1,2.22,1.86,4.78,4.78,0,0,1,.73,2.59,4.54,4.54,0,0,1-.66,2.47,4.77,4.77,0,0,1-1.8,1.65,5.23,5.23,0,0,1,2.18,1.88,5.17,5.17,0,0,1,.76,2.8,5.46,5.46,0,0,1-1,3.21,6,6,0,0,1-2.56,2.06,9.38,9.38,0,0,1-7.16,0,6,6,0,0,1-2.56-2.06,5.46,5.46,0,0,1-.95-3.21,5.23,5.23,0,0,1,.76-2.83,5.1,5.1,0,0,1,2.16-1.85A4.35,4.35,0,0,1,570.77,477.66Zm4.64,6.73a2.61,2.61,0,0,0,0,3.67,2.82,2.82,0,0,0,2,.71,2.71,2.71,0,0,0,2-.71,2.45,2.45,0,0,0,.72-1.81,2.39,2.39,0,0,0-.74-1.84,2.79,2.79,0,0,0-2-.69A3,3,0,0,0,575.41,484.39Zm3.64-7.71a2.27,2.27,0,0,0-3.9,1.69,2.09,2.09,0,0,0,.63,1.61,2.25,2.25,0,0,0,1.63.59A2.28,2.28,0,0,0,579,480a2.14,2.14,0,0,0,.63-1.63A2.19,2.19,0,0,0,579.05,476.68Z"/><path class="cls-2" d="M600.59,476.82H592.4v3.62a3.81,3.81,0,0,1,1.47-.94,5.49,5.49,0,0,1,2-.37,5.7,5.7,0,0,1,3.27.89,5.33,5.33,0,0,1,1.9,2.31,7.83,7.83,0,0,1,.6,3.08,6.72,6.72,0,0,1-1.73,4.86,6.46,6.46,0,0,1-4.88,1.8,8.58,8.58,0,0,1-3.65-.72,5.53,5.53,0,0,1-2.39-2,5.75,5.75,0,0,1-.92-3h4.38a2.29,2.29,0,0,0,2.42,1.89,2.2,2.2,0,0,0,1.84-.79,3.4,3.4,0,0,0,.6-2.1,2.81,2.81,0,0,0-.63-2,2.36,2.36,0,0,0-1.84-.68,2.39,2.39,0,0,0-1.47.43,2,2,0,0,0-.76,1.14h-4.33V472.88h12.26Z"/><path class="cls-2" d="M615.89,481v3.73H604.34V481Z"/><path class="cls-2" d="M619.49,488.66V485l8.3-11.87h5v11.61H635v3.88H632.8v3.41h-4.49v-3.41Zm9.14-10.55-4.41,6.67h4.41Z"/><path class="cls-2" d="M637.26,488.66V485l8.3-11.87h5v11.61h2.15v3.88h-2.15v3.41h-4.49v-3.41Zm9.14-10.55L642,484.78h4.41Z"/><path class="cls-2" d="M453.71,498.4l-5,13.28h-2l-5-13.28h1.85l4.17,11.45,4.17-11.45Z"/><path class="cls-2" d="M465.08,507.11h-8.34a3.29,3.29,0,0,0,3.39,3.28,3.21,3.21,0,0,0,1.88-.53,2.73,2.73,0,0,0,1.05-1.4h1.87a4.51,4.51,0,0,1-1.67,2.45,5.06,5.06,0,0,1-3.13.94,5.33,5.33,0,0,1-2.66-.66,4.72,4.72,0,0,1-1.83-1.9,6.44,6.44,0,0,1,0-5.68,4.46,4.46,0,0,1,1.82-1.88,5.36,5.36,0,0,1,2.69-.66,5.26,5.26,0,0,1,2.63.65,4.5,4.5,0,0,1,1.76,1.78,5.3,5.3,0,0,1,.62,2.56A9.79,9.79,0,0,1,465.08,507.11ZM462.91,504a2.85,2.85,0,0,0-1.19-1.09,3.69,3.69,0,0,0-1.67-.37,3.19,3.19,0,0,0-2.23.84,3.4,3.4,0,0,0-1.06,2.32h6.59A3.19,3.19,0,0,0,462.91,504Z"/><path class="cls-2" d="M470.47,501.55a4,4,0,0,1,2.06-.5v1.79h-.45q-2.93,0-2.92,3.17v5.67h-1.73V501.24h1.73v1.7A3.32,3.32,0,0,1,470.47,501.55Z"/><path class="cls-2" d="M477.83,501.66a4.65,4.65,0,0,1,2.34-.59,4.85,4.85,0,0,1,2.54.67,4.73,4.73,0,0,1,1.77,1.88,5.86,5.86,0,0,1,.65,2.81,6,6,0,0,1-.65,2.81,4.72,4.72,0,0,1-4.31,2.61,4.58,4.58,0,0,1-2.37-.59,3.94,3.94,0,0,1-1.53-1.5v1.92h-1.74V497.59h1.74v5.6A4,4,0,0,1,477.83,501.66Zm5.05,2.71a3.33,3.33,0,0,0-1.29-1.34,3.59,3.59,0,0,0-1.78-.45,3.45,3.45,0,0,0-1.76.46,3.55,3.55,0,0,0-1.3,1.36,4.21,4.21,0,0,0-.48,2,4.28,4.28,0,0,0,.48,2.07,3.45,3.45,0,0,0,1.3,1.35,3.37,3.37,0,0,0,1.76.47,3.41,3.41,0,0,0,1.78-.47,3.36,3.36,0,0,0,1.29-1.35,4.4,4.4,0,0,0,.47-2.08A4.32,4.32,0,0,0,482.88,504.37Z"/><path class="cls-2" d="M496.88,507.11h-8.34a3.28,3.28,0,0,0,3.39,3.28,3.18,3.18,0,0,0,1.87-.53,2.75,2.75,0,0,0,1.06-1.4h1.87a4.47,4.47,0,0,1-1.68,2.45,5.05,5.05,0,0,1-3.12.94,5.33,5.33,0,0,1-2.66-.66,4.74,4.74,0,0,1-1.84-1.9,6.44,6.44,0,0,1,0-5.68,4.52,4.52,0,0,1,1.82-1.88,5.4,5.4,0,0,1,2.7-.66,5.29,5.29,0,0,1,2.63.65,4.56,4.56,0,0,1,1.76,1.78,5.3,5.3,0,0,1,.62,2.56A9.79,9.79,0,0,1,496.88,507.11ZM494.71,504a2.85,2.85,0,0,0-1.19-1.09,3.72,3.72,0,0,0-1.67-.37,3.21,3.21,0,0,0-2.24.84,3.44,3.44,0,0,0-1.06,2.32h6.6A3.19,3.19,0,0,0,494.71,504Z"/><path class="cls-2" d="M507.4,502.21a4.44,4.44,0,0,1,1.18,3.32v6.15h-1.72v-5.9a3.36,3.36,0,0,0-.78-2.39,2.76,2.76,0,0,0-2.13-.83,2.82,2.82,0,0,0-2.18.86,3.49,3.49,0,0,0-.81,2.49v5.77h-1.74V501.24H501v1.49a3.44,3.44,0,0,1,1.4-1.24,4.36,4.36,0,0,1,1.95-.44A4.24,4.24,0,0,1,507.4,502.21Z"/><path class="cls-2" d="M511.41,503.62a4.7,4.7,0,0,1,1.79-1.88,4.8,4.8,0,0,1,2.52-.67,4.67,4.67,0,0,1,2.38.59,4,4,0,0,1,1.51,1.49v-1.91h1.75v10.44h-1.75v-1.94a4.14,4.14,0,0,1-1.54,1.51,4.59,4.59,0,0,1-2.37.6,4.68,4.68,0,0,1-2.51-.68,4.89,4.89,0,0,1-1.78-1.93,6,6,0,0,1-.64-2.81A5.86,5.86,0,0,1,511.41,503.62Zm7.72.77a3.43,3.43,0,0,0-1.29-1.35,3.5,3.5,0,0,0-1.78-.46,3.56,3.56,0,0,0-1.77.45,3.38,3.38,0,0,0-1.28,1.34,4.32,4.32,0,0,0-.47,2.06,4.4,4.4,0,0,0,.47,2.08,3.51,3.51,0,0,0,4.83,1.35,3.36,3.36,0,0,0,1.29-1.35,4.28,4.28,0,0,0,.48-2.07A4.2,4.2,0,0,0,519.13,504.39Z"/><path class="cls-2" d="M526,497.59v14.09h-1.74V497.59Z"/></g></g></svg>